<svg xmlns="http://www.w3.org/2000/svg" width="12" height="12" viewBox="0 0 12 12" fill="none">
  <path d="M2.25075 9H9.75075C10.1632 9 10.5008 8.6625 10.5008 8.25V2.25C10.5008 1.8375 10.1632 1.5 9.75075 1.5H2.25075C1.83825 1.5 1.50075 1.8375 1.50075 2.25V8.25C1.50075 8.6625 1.83825 9 2.25075 9ZM2.25075 2.25H9.75075V8.25H2.25075V2.25ZM11.6258 10.5H0.375C0.16875 10.5 0 10.6687 0 10.875C0 11.0813 0.16875 11.25 0.375 11.25H11.6258C11.832 11.25 12.0007 11.0813 12.0007 10.875C12.0007 10.6687 11.832 10.5 11.6258 10.5Z" fill="#B2B2B2"/>
</svg>